<?xml version="1.0" encoding="utf-8"?>
<!-- Generator: Adobe Illustrator 19.0.0, SVG Export Plug-In . SVG Version: 6.00 Build 0)  -->
<svg version="1.1" id="Capa_1" xmlns="http://www.w3.org/2000/svg" xmlns:xlink="http://www.w3.org/1999/xlink" x="0px" y="0px"
	 viewBox="-260 352 90 90" style="enable-background:new -260 352 90 90;" xml:space="preserve">
<style type="text/css">
	.st0{fill:#66B6FF;}
</style>
<g>
	<g id="XMLID_1_">
		<g>
			<path class="st0" d="M-184.8,422.8c2.2,2.2,3.3,4.9,3.3,7.9s-1.1,5.7-3.3,7.9s-4.8,3.3-7.9,3.3h-22.2c-9.3,0-17.2-3.3-23.7-9.9
				c-6.6-6.6-9.8-14.5-9.8-23.8v-45.1c0-3.2,1.1-5.8,3.3-8c2.2-2.2,4.9-3.3,8-3.3c3.1,0,5.7,1.1,7.9,3.3c2.2,2.2,3.3,4.9,3.3,7.9
				v16.3h31.6c2.9,0,5.3,1,7.4,3.1c2.1,2.1,3.1,4.5,3.1,7.4c0,2.9-1,5.3-3.1,7.4c-2,2-4.5,3.1-7.4,3.1h-31.6v7.9
				c0,3.1,1.1,5.7,3.2,7.9c2.1,2.2,4.8,3.3,7.9,3.3h22.2C-189.6,419.5-187,420.6-184.8,422.8z"/>
		</g>
		<g>
		</g>
	</g>
</g>
</svg>
